<svg width="180" height="88" viewBox="0 0 180 88" fill="none" xmlns="http://www.w3.org/2000/svg">
<mask id="path-1-outside-1_3_49" maskUnits="userSpaceOnUse" x="13" y="9" width="157" height="56" fill="black">
<rect fill="white" x="13" y="9" width="157" height="56"/>
<path d="M36.1565 60.336C35.1752 61.0613 33.9592 61.616 32.5085 62C31.1005 62.3413 29.6285 62.512 28.0925 62.512C23.9538 62.512 20.7752 61.4667 18.5565 59.376C16.3378 57.2853 15.2285 54.2133 15.2285 50.16V19.952H25.2125V28.336H33.7245V36.016H25.2125V50.032C25.2125 51.4827 25.5752 52.6133 26.3005 53.424C27.0258 54.192 28.0712 54.576 29.4365 54.576C30.9725 54.576 32.3378 54.1493 33.5325 53.296L36.1565 60.336ZM62.7235 27.056C66.9902 27.056 70.4248 28.336 73.0275 30.896C75.6728 33.456 76.9955 37.2533 76.9955 42.288V62H67.0115V43.824C67.0115 41.0933 66.4142 39.0667 65.2195 37.744C64.0248 36.3787 62.2968 35.696 60.0355 35.696C57.5182 35.696 55.5128 36.4853 54.0195 38.064C52.5262 39.6 51.7795 41.904 51.7795 44.976V62H41.7955V14.512H51.7795V31.152C53.1022 29.8293 54.7022 28.8267 56.5795 28.144C58.4568 27.4187 60.5048 27.056 62.7235 27.056ZM86.0455 27.568H96.0295V62H86.0455V27.568ZM91.0375 22.768C89.2028 22.768 87.7095 22.2347 86.5575 21.168C85.4055 20.1013 84.8295 18.7787 84.8295 17.2C84.8295 15.6213 85.4055 14.2987 86.5575 13.232C87.7095 12.1653 89.2028 11.632 91.0375 11.632C92.8722 11.632 94.3655 12.144 95.5175 13.168C96.6695 14.192 97.2455 15.472 97.2455 17.008C97.2455 18.672 96.6695 20.0587 95.5175 21.168C94.3655 22.2347 92.8722 22.768 91.0375 22.768ZM114.832 32.112C116.026 30.448 117.626 29.1893 119.632 28.336C121.68 27.4827 124.026 27.056 126.672 27.056V36.272C125.562 36.1867 124.816 36.144 124.432 36.144C121.573 36.144 119.333 36.9547 117.712 38.576C116.09 40.1547 115.28 42.544 115.28 45.744V62H105.296V27.568H114.832V32.112ZM167.368 14.512V62H157.832V58.032C155.357 61.0187 151.773 62.512 147.08 62.512C143.837 62.512 140.893 61.7867 138.248 60.336C135.645 58.8853 133.597 56.816 132.104 54.128C130.61 51.44 129.864 48.3253 129.864 44.784C129.864 41.2427 130.61 38.128 132.104 35.44C133.597 32.752 135.645 30.6827 138.248 29.232C140.893 27.7813 143.837 27.056 147.08 27.056C151.474 27.056 154.909 28.4427 157.384 31.216V14.512H167.368ZM148.808 54.32C151.325 54.32 153.416 53.4667 155.08 51.76C156.744 50.0107 157.576 47.6853 157.576 44.784C157.576 41.8827 156.744 39.5787 155.08 37.872C153.416 36.1227 151.325 35.248 148.808 35.248C146.248 35.248 144.136 36.1227 142.472 37.872C140.808 39.5787 139.976 41.8827 139.976 44.784C139.976 47.6853 140.808 50.0107 142.472 51.76C144.136 53.4667 146.248 54.32 148.808 54.32Z"/>
</mask>
<path d="M36.1565 60.336C35.1752 61.0613 33.9592 61.616 32.5085 62C31.1005 62.3413 29.6285 62.512 28.0925 62.512C23.9538 62.512 20.7752 61.4667 18.5565 59.376C16.3378 57.2853 15.2285 54.2133 15.2285 50.16V19.952H25.2125V28.336H33.7245V36.016H25.2125V50.032C25.2125 51.4827 25.5752 52.6133 26.3005 53.424C27.0258 54.192 28.0712 54.576 29.4365 54.576C30.9725 54.576 32.3378 54.1493 33.5325 53.296L36.1565 60.336ZM62.7235 27.056C66.9902 27.056 70.4248 28.336 73.0275 30.896C75.6728 33.456 76.9955 37.2533 76.9955 42.288V62H67.0115V43.824C67.0115 41.0933 66.4142 39.0667 65.2195 37.744C64.0248 36.3787 62.2968 35.696 60.0355 35.696C57.5182 35.696 55.5128 36.4853 54.0195 38.064C52.5262 39.6 51.7795 41.904 51.7795 44.976V62H41.7955V14.512H51.7795V31.152C53.1022 29.8293 54.7022 28.8267 56.5795 28.144C58.4568 27.4187 60.5048 27.056 62.7235 27.056ZM86.0455 27.568H96.0295V62H86.0455V27.568ZM91.0375 22.768C89.2028 22.768 87.7095 22.2347 86.5575 21.168C85.4055 20.1013 84.8295 18.7787 84.8295 17.2C84.8295 15.6213 85.4055 14.2987 86.5575 13.232C87.7095 12.1653 89.2028 11.632 91.0375 11.632C92.8722 11.632 94.3655 12.144 95.5175 13.168C96.6695 14.192 97.2455 15.472 97.2455 17.008C97.2455 18.672 96.6695 20.0587 95.5175 21.168C94.3655 22.2347 92.8722 22.768 91.0375 22.768ZM114.832 32.112C116.026 30.448 117.626 29.1893 119.632 28.336C121.68 27.4827 124.026 27.056 126.672 27.056V36.272C125.562 36.1867 124.816 36.144 124.432 36.144C121.573 36.144 119.333 36.9547 117.712 38.576C116.09 40.1547 115.28 42.544 115.28 45.744V62H105.296V27.568H114.832V32.112ZM167.368 14.512V62H157.832V58.032C155.357 61.0187 151.773 62.512 147.08 62.512C143.837 62.512 140.893 61.7867 138.248 60.336C135.645 58.8853 133.597 56.816 132.104 54.128C130.61 51.44 129.864 48.3253 129.864 44.784C129.864 41.2427 130.61 38.128 132.104 35.44C133.597 32.752 135.645 30.6827 138.248 29.232C140.893 27.7813 143.837 27.056 147.08 27.056C151.474 27.056 154.909 28.4427 157.384 31.216V14.512H167.368ZM148.808 54.32C151.325 54.32 153.416 53.4667 155.08 51.76C156.744 50.0107 157.576 47.6853 157.576 44.784C157.576 41.8827 156.744 39.5787 155.08 37.872C153.416 36.1227 151.325 35.248 148.808 35.248C146.248 35.248 144.136 36.1227 142.472 37.872C140.808 39.5787 139.976 41.8827 139.976 44.784C139.976 47.6853 140.808 50.0107 142.472 51.76C144.136 53.4667 146.248 54.32 148.808 54.32Z" fill="black"/>
<path d="M36.1565 60.336L37.3453 61.9444L38.5567 61.049L38.0306 59.6375L36.1565 60.336ZM32.5085 62L32.9797 63.9437L33 63.9388L33.0203 63.9334L32.5085 62ZM18.5565 59.376L17.1849 60.8316L18.5565 59.376ZM15.2285 19.952V17.952H13.2285V19.952H15.2285ZM25.2125 19.952H27.2125V17.952H25.2125V19.952ZM25.2125 28.336H23.2125V30.336H25.2125V28.336ZM33.7245 28.336H35.7245V26.336H33.7245V28.336ZM33.7245 36.016V38.016H35.7245V36.016H33.7245ZM25.2125 36.016V34.016H23.2125V36.016H25.2125ZM26.3005 53.424L24.81 54.7576L24.828 54.7777L24.8465 54.7972L26.3005 53.424ZM33.5325 53.296L35.4066 52.5975L34.4947 50.1509L32.37 51.6685L33.5325 53.296ZM34.9677 58.7276C34.2303 59.2727 33.2576 59.7328 31.9967 60.0666L33.0203 63.9334C34.6608 63.4992 36.1201 62.85 37.3453 61.9444L34.9677 58.7276ZM32.0373 60.0563C30.7926 60.3581 29.4793 60.512 28.0925 60.512V64.512C29.7777 64.512 31.4084 64.3246 32.9797 63.9437L32.0373 60.0563ZM28.0925 60.512C24.2782 60.512 21.6597 59.5521 19.9281 57.9204L17.1849 60.8316C19.8906 63.3812 23.6294 64.512 28.0925 64.512V60.512ZM19.9281 57.9204C18.2303 56.3205 17.2285 53.8519 17.2285 50.16H13.2285C13.2285 54.5748 14.4454 58.2501 17.1849 60.8316L19.9281 57.9204ZM17.2285 50.16V19.952H13.2285V50.16H17.2285ZM15.2285 21.952H25.2125V17.952H15.2285V21.952ZM23.2125 19.952V28.336H27.2125V19.952H23.2125ZM25.2125 30.336H33.7245V26.336H25.2125V30.336ZM31.7245 28.336V36.016H35.7245V28.336H31.7245ZM33.7245 34.016H25.2125V38.016H33.7245V34.016ZM23.2125 36.016V50.032H27.2125V36.016H23.2125ZM23.2125 50.032C23.2125 51.8079 23.6602 53.4725 24.81 54.7576L27.791 52.0904C27.4902 51.7542 27.2125 51.1574 27.2125 50.032H23.2125ZM24.8465 54.7972C26.0521 56.0738 27.6905 56.576 29.4365 56.576V52.576C28.4518 52.576 27.9995 52.3102 27.7545 52.0508L24.8465 54.7972ZM29.4365 56.576C31.3688 56.576 33.1448 56.0307 34.695 54.9235L32.37 51.6685C31.5309 52.2679 30.5762 52.576 29.4365 52.576V56.576ZM31.6584 53.9945L34.2824 61.0345L38.0306 59.6375L35.4066 52.5975L31.6584 53.9945ZM73.0275 30.896L71.625 32.3218L71.6308 32.3275L71.6367 32.3332L73.0275 30.896ZM76.9955 62V64H78.9955V62H76.9955ZM67.0115 62H65.0115V64H67.0115V62ZM65.2195 37.744L63.7143 39.061L63.7247 39.0729L63.7353 39.0846L65.2195 37.744ZM54.0195 38.064L55.4535 39.4582L55.463 39.4483L55.4724 39.4384L54.0195 38.064ZM51.7795 62V64H53.7795V62H51.7795ZM41.7955 62H39.7955V64H41.7955V62ZM41.7955 14.512V12.512H39.7955V14.512H41.7955ZM51.7795 14.512H53.7795V12.512H51.7795V14.512ZM51.7795 31.152H49.7795V35.9804L53.1937 32.5662L51.7795 31.152ZM56.5795 28.144L57.263 30.0236L57.2817 30.0168L57.3003 30.0096L56.5795 28.144ZM62.7235 29.056C66.5608 29.056 69.4593 30.1916 71.625 32.3218L74.43 29.4701C71.3904 26.4804 67.4196 25.056 62.7235 25.056V29.056ZM71.6367 32.3332C73.7666 34.3944 74.9955 37.5902 74.9955 42.288H78.9955C78.9955 36.9165 77.5791 32.5176 74.4183 29.4588L71.6367 32.3332ZM74.9955 42.288V62H78.9955V42.288H74.9955ZM76.9955 60H67.0115V64H76.9955V60ZM69.0115 62V43.824H65.0115V62H69.0115ZM69.0115 43.824C69.0115 40.8524 68.3685 38.2466 66.7037 36.4034L63.7353 39.0846C64.4598 39.8867 65.0115 41.3342 65.0115 43.824H69.0115ZM66.7247 36.427C65.0596 34.5241 62.72 33.696 60.0355 33.696V37.696C61.8737 37.696 62.9901 38.2333 63.7143 39.061L66.7247 36.427ZM60.0355 33.696C57.0635 33.696 54.4984 34.6474 52.5666 36.6896L55.4724 39.4384C56.5273 38.3233 57.9728 37.696 60.0355 37.696V33.696ZM52.5855 36.6698C50.5973 38.7149 49.7795 41.6096 49.7795 44.976H53.7795C53.7795 42.1984 54.4551 40.4851 55.4535 39.4582L52.5855 36.6698ZM49.7795 44.976V62H53.7795V44.976H49.7795ZM51.7795 60H41.7955V64H51.7795V60ZM43.7955 62V14.512H39.7955V62H43.7955ZM41.7955 16.512H51.7795V12.512H41.7955V16.512ZM49.7795 14.512V31.152H53.7795V14.512H49.7795ZM53.1937 32.5662C54.2959 31.464 55.6413 30.6133 57.263 30.0236L55.896 26.2644C53.763 27.04 51.9084 28.1946 50.3653 29.7378L53.1937 32.5662ZM57.3003 30.0096C58.9253 29.3818 60.7261 29.056 62.7235 29.056V25.056C60.2836 25.056 57.9884 25.4556 55.8587 26.2784L57.3003 30.0096ZM86.0455 27.568V25.568H84.0455V27.568H86.0455ZM96.0295 27.568H98.0295V25.568H96.0295V27.568ZM96.0295 62V64H98.0295V62H96.0295ZM86.0455 62H84.0455V64H86.0455V62ZM86.5575 21.168L85.1987 22.6355V22.6355L86.5575 21.168ZM86.5575 13.232L87.9163 14.6995L87.9163 14.6995L86.5575 13.232ZM95.5175 13.168L94.1888 14.6628V14.6628L95.5175 13.168ZM95.5175 21.168L96.8763 22.6355L96.8907 22.6222L96.9048 22.6086L95.5175 21.168ZM86.0455 29.568H96.0295V25.568H86.0455V29.568ZM94.0295 27.568V62H98.0295V27.568H94.0295ZM96.0295 60H86.0455V64H96.0295V60ZM88.0455 62V27.568H84.0455V62H88.0455ZM91.0375 20.768C89.6161 20.768 88.6371 20.3679 87.9163 19.7005L85.1987 22.6355C86.7819 24.1014 88.7896 24.768 91.0375 24.768V20.768ZM87.9163 19.7005C87.1757 19.0147 86.8295 18.225 86.8295 17.2H82.8295C82.8295 19.3323 83.6353 21.188 85.1987 22.6355L87.9163 19.7005ZM86.8295 17.2C86.8295 16.175 87.1757 15.3853 87.9163 14.6995L85.1987 11.7645C83.6353 13.212 82.8295 15.0677 82.8295 17.2H86.8295ZM87.9163 14.6995C88.6371 14.0321 89.6161 13.632 91.0375 13.632V9.632C88.7896 9.632 86.7819 10.2985 85.1987 11.7645L87.9163 14.6995ZM91.0375 13.632C92.4806 13.632 93.4702 14.0241 94.1888 14.6628L96.8462 11.6732C95.2608 10.2639 93.2637 9.632 91.0375 9.632V13.632ZM94.1888 14.6628C94.9155 15.3088 95.2455 16.0455 95.2455 17.008H99.2455C99.2455 14.8985 98.4235 13.0752 96.8462 11.6732L94.1888 14.6628ZM95.2455 17.008C95.2455 18.1532 94.8733 19.0118 94.1302 19.7274L96.9048 22.6086C98.4657 21.1055 99.2455 19.1908 99.2455 17.008H95.2455ZM94.1587 19.7005C93.4379 20.3679 92.4589 20.768 91.0375 20.768V24.768C93.2854 24.768 95.2931 24.1014 96.8763 22.6355L94.1587 19.7005ZM114.831 32.112H112.831V38.327L116.456 33.2784L114.831 32.112ZM119.632 28.336L118.862 26.4898L118.855 26.4927L118.848 26.4957L119.632 28.336ZM126.672 27.056H128.672V25.056H126.672V27.056ZM126.672 36.272L126.518 38.2661L128.672 38.4318V36.272H126.672ZM117.712 38.576L119.107 40.0089L119.116 39.9996L119.126 39.9902L117.712 38.576ZM115.28 62V64H117.28V62H115.28ZM105.296 62H103.296V64H105.296V62ZM105.296 27.568V25.568H103.296V27.568H105.296ZM114.831 27.568H116.831V25.568H114.831V27.568ZM116.456 33.2784C117.424 31.931 118.724 30.8958 120.415 30.1763L118.848 26.4957C116.529 27.4828 114.629 28.965 113.207 30.9456L116.456 33.2784ZM120.401 30.1822C122.163 29.4479 124.24 29.056 126.672 29.056V25.056C123.812 25.056 121.196 25.5174 118.862 26.4898L120.401 30.1822ZM124.672 27.056V36.272H128.672V27.056H124.672ZM126.825 34.2779C125.726 34.1934 124.904 34.144 124.432 34.144V38.144C124.727 38.144 125.398 38.1799 126.518 38.2661L126.825 34.2779ZM124.432 34.144C121.181 34.144 118.381 35.0777 116.297 37.1618L119.126 39.9902C120.284 38.8316 121.965 38.144 124.432 38.144V34.144ZM116.316 37.1431C114.171 39.2315 113.28 42.2312 113.28 45.744H117.28C117.28 42.8568 118.009 41.0778 119.107 40.0089L116.316 37.1431ZM113.28 45.744V62H117.28V45.744H113.28ZM115.28 60H105.296V64H115.28V60ZM107.296 62V27.568H103.296V62H107.296ZM105.296 29.568H114.831V25.568H105.296V29.568ZM112.831 27.568V32.112H116.831V27.568H112.831ZM167.367 14.512H169.367V12.512H167.367V14.512ZM167.367 62V64H169.367V62H167.367ZM157.831 62H155.831V64H157.831V62ZM157.831 58.032H159.831V52.4835L156.291 56.756L157.831 58.032ZM138.247 60.336L137.274 62.083L137.286 62.0896L138.247 60.336ZM132.104 54.128L133.852 53.1567L132.104 54.128ZM132.104 35.44L133.852 36.4113L132.104 35.44ZM138.247 29.232L137.286 27.4783L137.274 27.485L138.247 29.232ZM157.383 31.216L155.891 32.5476L159.383 36.4613V31.216H157.383ZM157.383 14.512V12.512H155.383V14.512H157.383ZM155.079 51.76L156.512 53.1562L156.52 53.1474L156.529 53.1384L155.079 51.76ZM155.079 37.872L153.63 39.2504L153.639 39.2594L153.648 39.2682L155.079 37.872ZM142.471 37.872L143.904 39.2682L143.912 39.2594L143.921 39.2504L142.471 37.872ZM142.471 51.76L141.022 53.1384L141.031 53.1474L141.04 53.1562L142.471 51.76ZM165.367 14.512V62H169.367V14.512H165.367ZM167.367 60H157.831V64H167.367V60ZM159.831 62V58.032H155.831V62H159.831ZM156.291 56.756C154.277 59.1876 151.315 60.512 147.079 60.512V64.512C152.231 64.512 156.437 62.8497 159.372 59.308L156.291 56.756ZM147.079 60.512C144.147 60.512 141.538 59.8594 139.209 58.5824L137.286 62.0896C140.248 63.7139 143.527 64.512 147.079 64.512V60.512ZM139.221 58.589C136.955 57.3258 135.17 55.53 133.852 53.1567L130.355 55.0993C132.023 58.102 134.335 60.4449 137.274 62.083L139.221 58.589ZM133.852 53.1567C132.547 50.8083 131.864 48.0375 131.864 44.784H127.864C127.864 48.6131 128.673 52.0717 130.355 55.0993L133.852 53.1567ZM131.864 44.784C131.864 41.5305 132.547 38.7597 133.852 36.4113L130.355 34.4687C128.673 37.4963 127.864 40.9549 127.864 44.784H131.864ZM133.852 36.4113C135.17 34.038 136.955 32.2422 139.221 30.979L137.274 27.485C134.335 29.1231 132.023 31.466 130.355 34.4687L133.852 36.4113ZM139.209 30.9856C141.538 29.7086 144.147 29.056 147.079 29.056V25.056C143.527 25.056 140.248 25.8541 137.286 27.4784L139.209 30.9856ZM147.079 29.056C151.018 29.056 153.866 30.2776 155.891 32.5476L158.876 29.8844C155.952 26.6077 151.93 25.056 147.079 25.056V29.056ZM159.383 31.216V14.512H155.383V31.216H159.383ZM157.383 16.512H167.367V12.512H157.383V16.512ZM148.807 56.32C151.83 56.32 154.448 55.2725 156.512 53.1562L153.648 50.3638C152.383 51.6609 150.819 52.32 148.807 52.32V56.32ZM156.529 53.1384C158.615 50.9447 159.576 48.0886 159.576 44.784H155.576C155.576 47.2821 154.872 49.0767 153.63 50.3816L156.529 53.1384ZM159.576 44.784C159.576 41.4813 158.616 38.634 156.512 36.4758L153.648 39.2682C154.871 40.5233 155.576 42.2841 155.576 44.784H159.576ZM156.529 36.4936C154.469 34.3287 151.846 33.248 148.807 33.248V37.248C150.803 37.248 152.362 37.9166 153.63 39.2504L156.529 36.4936ZM148.807 33.248C145.737 33.248 143.089 34.3213 141.022 36.4936L143.921 39.2504C145.182 37.924 146.758 37.248 148.807 37.248V33.248ZM141.04 36.4758C138.935 38.634 137.976 41.4813 137.976 44.784H141.975C141.975 42.2841 142.68 40.5233 143.904 39.2682L141.04 36.4758ZM137.976 44.784C137.976 48.0886 138.936 50.9447 141.022 53.1384L143.921 50.3816C142.679 49.0767 141.975 47.2821 141.975 44.784H137.976ZM141.04 53.1562C143.11 55.2796 145.753 56.32 148.807 56.32V52.32C146.742 52.32 145.161 51.6538 143.904 50.3638L141.04 53.1562Z" fill="black" mask="url(#path-1-outside-1_3_49)"/>
<path d="M13.5 18L3.5 28L13.5 29.5V18Z" fill="black"/>
<path d="M37.5 62L28.5 71L17.5 69.5L9 58L37.5 62Z" fill="black"/>
<path d="M53.5 64L43.5 74L41 67L47.5 58.5L53.5 64Z" fill="black"/>
<path d="M80 63L69 74L64 71L63 62L80 63Z" fill="black"/>
<path d="M99.5 62.5L88 74L85.5 72V62.5H99.5Z" fill="black"/>
<path d="M117 64L107 74L104.5 63L110 62L117 64Z" fill="black"/>
<path d="M169.5 64L159.5 74L158 60.5L166 59.5L169.5 64Z" fill="black"/>
<path d="M37.5 36.5L26 48L23 35L37.5 36.5Z" fill="black"/>
<path d="M39.5 12.5L30 22.5L43 23.5L44 15L39.5 12.5Z" fill="black"/>
<path d="M97.5 22L88.8 30.7L90.5 31.5L85 37L74 35.5L82 27.5L87.1 29.9L85.5 21.5L95 16.5L97.5 22Z" fill="black"/>
<path d="M77 20.5L83.5 14L86 17.5L79 22L77 20.5Z" fill="black"/>
<path d="M103.5 25.5L93.5 35.5L104.5 37.5L107 30.5L103.5 25.5Z" fill="black"/>
<path d="M125.368 41.6316L118.5 48.5L115 45.5L121 34.5L126.543 37.4565L135 29L130.5 43L125.368 41.6316Z" fill="black"/>
<path d="M155.5 12.5L145.5 22.5L155.5 25.5L161.5 16L155.5 12.5Z" fill="black"/>
<path d="M136.5 58.5L139.5 63.5L131.5 63L130.5 56.5L136.5 58.5Z" fill="black"/>
<mask id="path-4-outside-2_3_49" maskUnits="userSpaceOnUse" x="3" y="19" width="157" height="56" fill="black">
<rect fill="white" x="3" y="19" width="157" height="56"/>
<path d="M26.1565 70.336C25.1752 71.0613 23.9592 71.616 22.5085 72C21.1005 72.3413 19.6285 72.512 18.0925 72.512C13.9538 72.512 10.7752 71.4667 8.5565 69.376C6.33783 67.2853 5.2285 64.2133 5.2285 60.16V29.952H15.2125V38.336H23.7245V46.016H15.2125V60.032C15.2125 61.4827 15.5752 62.6133 16.3005 63.424C17.0258 64.192 18.0712 64.576 19.4365 64.576C20.9725 64.576 22.3378 64.1493 23.5325 63.296L26.1565 70.336ZM52.7235 37.056C56.9902 37.056 60.4248 38.336 63.0275 40.896C65.6728 43.456 66.9955 47.2533 66.9955 52.288V72H57.0115V53.824C57.0115 51.0933 56.4142 49.0667 55.2195 47.744C54.0248 46.3787 52.2968 45.696 50.0355 45.696C47.5182 45.696 45.5128 46.4853 44.0195 48.064C42.5262 49.6 41.7795 51.904 41.7795 54.976V72H31.7955V24.512H41.7795V41.152C43.1022 39.8293 44.7022 38.8267 46.5795 38.144C48.4568 37.4187 50.5048 37.056 52.7235 37.056ZM76.0455 37.568H86.0295V72H76.0455V37.568ZM81.0375 32.768C79.2028 32.768 77.7095 32.2347 76.5575 31.168C75.4055 30.1013 74.8295 28.7787 74.8295 27.2C74.8295 25.6213 75.4055 24.2987 76.5575 23.232C77.7095 22.1653 79.2028 21.632 81.0375 21.632C82.8722 21.632 84.3655 22.144 85.5175 23.168C86.6695 24.192 87.2455 25.472 87.2455 27.008C87.2455 28.672 86.6695 30.0587 85.5175 31.168C84.3655 32.2347 82.8722 32.768 81.0375 32.768ZM104.832 42.112C106.026 40.448 107.626 39.1893 109.632 38.336C111.68 37.4827 114.026 37.056 116.672 37.056V46.272C115.562 46.1867 114.816 46.144 114.432 46.144C111.573 46.144 109.333 46.9547 107.712 48.576C106.09 50.1547 105.28 52.544 105.28 55.744V72H95.2955V37.568H104.832V42.112ZM157.368 24.512V72H147.832V68.032C145.357 71.0187 141.773 72.512 137.08 72.512C133.837 72.512 130.893 71.7867 128.248 70.336C125.645 68.8853 123.597 66.816 122.104 64.128C120.61 61.44 119.864 58.3253 119.864 54.784C119.864 51.2427 120.61 48.128 122.104 45.44C123.597 42.752 125.645 40.6827 128.248 39.232C130.893 37.7813 133.837 37.056 137.08 37.056C141.474 37.056 144.909 38.4427 147.384 41.216V24.512H157.368ZM138.808 64.32C141.325 64.32 143.416 63.4667 145.08 61.76C146.744 60.0107 147.576 57.6853 147.576 54.784C147.576 51.8827 146.744 49.5787 145.08 47.872C143.416 46.1227 141.325 45.248 138.808 45.248C136.248 45.248 134.136 46.1227 132.472 47.872C130.808 49.5787 129.976 51.8827 129.976 54.784C129.976 57.6853 130.808 60.0107 132.472 61.76C134.136 63.4667 136.248 64.32 138.808 64.32Z"/>
</mask>
<path d="M26.1565 70.336C25.1752 71.0613 23.9592 71.616 22.5085 72C21.1005 72.3413 19.6285 72.512 18.0925 72.512C13.9538 72.512 10.7752 71.4667 8.5565 69.376C6.33783 67.2853 5.2285 64.2133 5.2285 60.16V29.952H15.2125V38.336H23.7245V46.016H15.2125V60.032C15.2125 61.4827 15.5752 62.6133 16.3005 63.424C17.0258 64.192 18.0712 64.576 19.4365 64.576C20.9725 64.576 22.3378 64.1493 23.5325 63.296L26.1565 70.336ZM52.7235 37.056C56.9902 37.056 60.4248 38.336 63.0275 40.896C65.6728 43.456 66.9955 47.2533 66.9955 52.288V72H57.0115V53.824C57.0115 51.0933 56.4142 49.0667 55.2195 47.744C54.0248 46.3787 52.2968 45.696 50.0355 45.696C47.5182 45.696 45.5128 46.4853 44.0195 48.064C42.5262 49.6 41.7795 51.904 41.7795 54.976V72H31.7955V24.512H41.7795V41.152C43.1022 39.8293 44.7022 38.8267 46.5795 38.144C48.4568 37.4187 50.5048 37.056 52.7235 37.056ZM76.0455 37.568H86.0295V72H76.0455V37.568ZM81.0375 32.768C79.2028 32.768 77.7095 32.2347 76.5575 31.168C75.4055 30.1013 74.8295 28.7787 74.8295 27.2C74.8295 25.6213 75.4055 24.2987 76.5575 23.232C77.7095 22.1653 79.2028 21.632 81.0375 21.632C82.8722 21.632 84.3655 22.144 85.5175 23.168C86.6695 24.192 87.2455 25.472 87.2455 27.008C87.2455 28.672 86.6695 30.0587 85.5175 31.168C84.3655 32.2347 82.8722 32.768 81.0375 32.768ZM104.832 42.112C106.026 40.448 107.626 39.1893 109.632 38.336C111.68 37.4827 114.026 37.056 116.672 37.056V46.272C115.562 46.1867 114.816 46.144 114.432 46.144C111.573 46.144 109.333 46.9547 107.712 48.576C106.09 50.1547 105.28 52.544 105.28 55.744V72H95.2955V37.568H104.832V42.112ZM157.368 24.512V72H147.832V68.032C145.357 71.0187 141.773 72.512 137.08 72.512C133.837 72.512 130.893 71.7867 128.248 70.336C125.645 68.8853 123.597 66.816 122.104 64.128C120.61 61.44 119.864 58.3253 119.864 54.784C119.864 51.2427 120.61 48.128 122.104 45.44C123.597 42.752 125.645 40.6827 128.248 39.232C130.893 37.7813 133.837 37.056 137.08 37.056C141.474 37.056 144.909 38.4427 147.384 41.216V24.512H157.368ZM138.808 64.32C141.325 64.32 143.416 63.4667 145.08 61.76C146.744 60.0107 147.576 57.6853 147.576 54.784C147.576 51.8827 146.744 49.5787 145.08 47.872C143.416 46.1227 141.325 45.248 138.808 45.248C136.248 45.248 134.136 46.1227 132.472 47.872C130.808 49.5787 129.976 51.8827 129.976 54.784C129.976 57.6853 130.808 60.0107 132.472 61.76C134.136 63.4667 136.248 64.32 138.808 64.32Z" fill="white"/>
<path d="M26.1565 70.336L27.3453 71.9444L28.5567 71.049L28.0306 69.6375L26.1565 70.336ZM22.5085 72L22.9797 73.9437L23 73.9388L23.0203 73.9334L22.5085 72ZM8.5565 69.376L7.1849 70.8316L8.5565 69.376ZM5.2285 29.952V27.952H3.2285V29.952H5.2285ZM15.2125 29.952H17.2125V27.952H15.2125V29.952ZM15.2125 38.336H13.2125V40.336H15.2125V38.336ZM23.7245 38.336H25.7245V36.336H23.7245V38.336ZM23.7245 46.016V48.016H25.7245V46.016H23.7245ZM15.2125 46.016V44.016H13.2125V46.016H15.2125ZM16.3005 63.424L14.81 64.7576L14.828 64.7777L14.8465 64.7972L16.3005 63.424ZM23.5325 63.296L25.4066 62.5975L24.4947 60.1509L22.37 61.6685L23.5325 63.296ZM24.9677 68.7276C24.2303 69.2727 23.2576 69.7328 21.9967 70.0666L23.0203 73.9334C24.6608 73.4992 26.1201 72.85 27.3453 71.9444L24.9677 68.7276ZM22.0373 70.0563C20.7926 70.3581 19.4793 70.512 18.0925 70.512V74.512C19.7777 74.512 21.4084 74.3246 22.9797 73.9437L22.0373 70.0563ZM18.0925 70.512C14.2782 70.512 11.6597 69.5521 9.9281 67.9204L7.1849 70.8316C9.89063 73.3812 13.6294 74.512 18.0925 74.512V70.512ZM9.9281 67.9204C8.23025 66.3205 7.2285 63.8519 7.2285 60.16H3.2285C3.2285 64.5748 4.44541 68.2501 7.1849 70.8316L9.9281 67.9204ZM7.2285 60.16V29.952H3.2285V60.16H7.2285ZM5.2285 31.952H15.2125V27.952H5.2285V31.952ZM13.2125 29.952V38.336H17.2125V29.952H13.2125ZM15.2125 40.336H23.7245V36.336H15.2125V40.336ZM21.7245 38.336V46.016H25.7245V38.336H21.7245ZM23.7245 44.016H15.2125V48.016H23.7245V44.016ZM13.2125 46.016V60.032H17.2125V46.016H13.2125ZM13.2125 60.032C13.2125 61.8079 13.6602 63.4725 14.81 64.7576L17.791 62.0904C17.4902 61.7542 17.2125 61.1574 17.2125 60.032H13.2125ZM14.8465 64.7972C16.0521 66.0738 17.6905 66.576 19.4365 66.576V62.576C18.4518 62.576 17.9995 62.3102 17.7545 62.0508L14.8465 64.7972ZM19.4365 66.576C21.3688 66.576 23.1448 66.0307 24.695 64.9235L22.37 61.6685C21.5309 62.2679 20.5762 62.576 19.4365 62.576V66.576ZM21.6584 63.9945L24.2824 71.0345L28.0306 69.6375L25.4066 62.5975L21.6584 63.9945ZM63.0275 40.896L61.625 42.3218L61.6308 42.3275L61.6367 42.3332L63.0275 40.896ZM66.9955 72V74H68.9955V72H66.9955ZM57.0115 72H55.0115V74H57.0115V72ZM55.2195 47.744L53.7143 49.061L53.7247 49.0729L53.7353 49.0846L55.2195 47.744ZM44.0195 48.064L45.4535 49.4582L45.463 49.4483L45.4724 49.4384L44.0195 48.064ZM41.7795 72V74H43.7795V72H41.7795ZM31.7955 72H29.7955V74H31.7955V72ZM31.7955 24.512V22.512H29.7955V24.512H31.7955ZM41.7795 24.512H43.7795V22.512H41.7795V24.512ZM41.7795 41.152H39.7795V45.9804L43.1937 42.5662L41.7795 41.152ZM46.5795 38.144L47.263 40.0236L47.2817 40.0168L47.3003 40.0096L46.5795 38.144ZM52.7235 39.056C56.5608 39.056 59.4593 40.1916 61.625 42.3218L64.43 39.4701C61.3904 36.4804 57.4196 35.056 52.7235 35.056V39.056ZM61.6367 42.3332C63.7666 44.3944 64.9955 47.5902 64.9955 52.288H68.9955C68.9955 46.9165 67.5791 42.5176 64.4183 39.4588L61.6367 42.3332ZM64.9955 52.288V72H68.9955V52.288H64.9955ZM66.9955 70H57.0115V74H66.9955V70ZM59.0115 72V53.824H55.0115V72H59.0115ZM59.0115 53.824C59.0115 50.8524 58.3685 48.2466 56.7037 46.4034L53.7353 49.0846C54.4598 49.8867 55.0115 51.3342 55.0115 53.824H59.0115ZM56.7247 46.427C55.0596 44.5241 52.72 43.696 50.0355 43.696V47.696C51.8737 47.696 52.9901 48.2333 53.7143 49.061L56.7247 46.427ZM50.0355 43.696C47.0635 43.696 44.4984 44.6474 42.5666 46.6896L45.4724 49.4384C46.5273 48.3233 47.9728 47.696 50.0355 47.696V43.696ZM42.5855 46.6698C40.5973 48.7149 39.7795 51.6096 39.7795 54.976H43.7795C43.7795 52.1984 44.4551 50.4851 45.4535 49.4582L42.5855 46.6698ZM39.7795 54.976V72H43.7795V54.976H39.7795ZM41.7795 70H31.7955V74H41.7795V70ZM33.7955 72V24.512H29.7955V72H33.7955ZM31.7955 26.512H41.7795V22.512H31.7955V26.512ZM39.7795 24.512V41.152H43.7795V24.512H39.7795ZM43.1937 42.5662C44.2959 41.464 45.6413 40.6133 47.263 40.0236L45.896 36.2644C43.763 37.04 41.9084 38.1946 40.3653 39.7378L43.1937 42.5662ZM47.3003 40.0096C48.9253 39.3818 50.7261 39.056 52.7235 39.056V35.056C50.2836 35.056 47.9884 35.4556 45.8587 36.2784L47.3003 40.0096ZM76.0455 37.568V35.568H74.0455V37.568H76.0455ZM86.0295 37.568H88.0295V35.568H86.0295V37.568ZM86.0295 72V74H88.0295V72H86.0295ZM76.0455 72H74.0455V74H76.0455V72ZM76.5575 31.168L75.1987 32.6355V32.6355L76.5575 31.168ZM76.5575 23.232L77.9163 24.6995L77.9163 24.6995L76.5575 23.232ZM85.5175 23.168L84.1888 24.6628V24.6628L85.5175 23.168ZM85.5175 31.168L86.8763 32.6355L86.8907 32.6222L86.9048 32.6086L85.5175 31.168ZM76.0455 39.568H86.0295V35.568H76.0455V39.568ZM84.0295 37.568V72H88.0295V37.568H84.0295ZM86.0295 70H76.0455V74H86.0295V70ZM78.0455 72V37.568H74.0455V72H78.0455ZM81.0375 30.768C79.6161 30.768 78.6371 30.3679 77.9163 29.7005L75.1987 32.6355C76.7819 34.1014 78.7896 34.768 81.0375 34.768V30.768ZM77.9163 29.7005C77.1757 29.0147 76.8295 28.225 76.8295 27.2H72.8295C72.8295 29.3323 73.6353 31.188 75.1987 32.6355L77.9163 29.7005ZM76.8295 27.2C76.8295 26.175 77.1757 25.3853 77.9163 24.6995L75.1987 21.7645C73.6353 23.212 72.8295 25.0677 72.8295 27.2H76.8295ZM77.9163 24.6995C78.6371 24.0321 79.6161 23.632 81.0375 23.632V19.632C78.7896 19.632 76.7819 20.2985 75.1987 21.7645L77.9163 24.6995ZM81.0375 23.632C82.4806 23.632 83.4702 24.0241 84.1888 24.6628L86.8462 21.6732C85.2608 20.2639 83.2637 19.632 81.0375 19.632V23.632ZM84.1888 24.6628C84.9155 25.3088 85.2455 26.0455 85.2455 27.008H89.2455C89.2455 24.8985 88.4235 23.0752 86.8462 21.6732L84.1888 24.6628ZM85.2455 27.008C85.2455 28.1532 84.8733 29.0118 84.1302 29.7274L86.9048 32.6086C88.4657 31.1055 89.2455 29.1908 89.2455 27.008H85.2455ZM84.1587 29.7005C83.4379 30.3679 82.4589 30.768 81.0375 30.768V34.768C83.2854 34.768 85.2931 34.1014 86.8763 32.6355L84.1587 29.7005ZM104.831 42.112H102.831V48.327L106.456 43.2784L104.831 42.112ZM109.632 38.336L108.862 36.4898L108.855 36.4927L108.848 36.4957L109.632 38.336ZM116.672 37.056H118.672V35.056H116.672V37.056ZM116.672 46.272L116.518 48.2661L118.672 48.4318V46.272H116.672ZM107.712 48.576L109.107 50.0089L109.116 49.9996L109.126 49.9902L107.712 48.576ZM105.28 72V74H107.28V72H105.28ZM95.2955 72H93.2955V74H95.2955V72ZM95.2955 37.568V35.568H93.2955V37.568H95.2955ZM104.831 37.568H106.831V35.568H104.831V37.568ZM106.456 43.2784C107.424 41.931 108.724 40.8958 110.415 40.1763L108.848 36.4957C106.529 37.4828 104.629 38.965 103.207 40.9456L106.456 43.2784ZM110.401 40.1822C112.163 39.4479 114.24 39.056 116.672 39.056V35.056C113.812 35.056 111.196 35.5174 108.862 36.4898L110.401 40.1822ZM114.672 37.056V46.272H118.672V37.056H114.672ZM116.825 44.2779C115.726 44.1934 114.904 44.144 114.432 44.144V48.144C114.727 48.144 115.398 48.1799 116.518 48.2661L116.825 44.2779ZM114.432 44.144C111.181 44.144 108.381 45.0777 106.297 47.1618L109.126 49.9902C110.284 48.8316 111.965 48.144 114.432 48.144V44.144ZM106.316 47.1431C104.171 49.2315 103.28 52.2312 103.28 55.744H107.28C107.28 52.8568 108.009 51.0778 109.107 50.0089L106.316 47.1431ZM103.28 55.744V72H107.28V55.744H103.28ZM105.28 70H95.2955V74H105.28V70ZM97.2955 72V37.568H93.2955V72H97.2955ZM95.2955 39.568H104.831V35.568H95.2955V39.568ZM102.831 37.568V42.112H106.831V37.568H102.831ZM157.367 24.512H159.367V22.512H157.367V24.512ZM157.367 72V74H159.367V72H157.367ZM147.831 72H145.831V74H147.831V72ZM147.831 68.032H149.831V62.4835L146.291 66.756L147.831 68.032ZM128.247 70.336L127.274 72.083L127.286 72.0896L128.247 70.336ZM122.104 64.128L123.852 63.1567L122.104 64.128ZM122.104 45.44L123.852 46.4113L122.104 45.44ZM128.247 39.232L127.286 37.4783L127.274 37.485L128.247 39.232ZM147.383 41.216L145.891 42.5476L149.383 46.4613V41.216H147.383ZM147.383 24.512V22.512H145.383V24.512H147.383ZM145.079 61.76L146.512 63.1562L146.52 63.1474L146.529 63.1384L145.079 61.76ZM145.079 47.872L143.63 49.2504L143.639 49.2594L143.648 49.2682L145.079 47.872ZM132.471 47.872L133.904 49.2682L133.912 49.2594L133.921 49.2504L132.471 47.872ZM132.471 61.76L131.022 63.1384L131.031 63.1474L131.04 63.1562L132.471 61.76ZM155.367 24.512V72H159.367V24.512H155.367ZM157.367 70H147.831V74H157.367V70ZM149.831 72V68.032H145.831V72H149.831ZM146.291 66.756C144.277 69.1876 141.315 70.512 137.079 70.512V74.512C142.231 74.512 146.437 72.8497 149.372 69.308L146.291 66.756ZM137.079 70.512C134.147 70.512 131.538 69.8594 129.209 68.5824L127.286 72.0896C130.248 73.7139 133.527 74.512 137.079 74.512V70.512ZM129.221 68.589C126.955 67.3258 125.17 65.53 123.852 63.1567L120.355 65.0993C122.023 68.102 124.335 70.4449 127.274 72.083L129.221 68.589ZM123.852 63.1567C122.547 60.8083 121.864 58.0375 121.864 54.784H117.864C117.864 58.6131 118.673 62.0717 120.355 65.0993L123.852 63.1567ZM121.864 54.784C121.864 51.5305 122.547 48.7597 123.852 46.4113L120.355 44.4687C118.673 47.4963 117.864 50.9549 117.864 54.784H121.864ZM123.852 46.4113C125.17 44.038 126.955 42.2422 129.221 40.979L127.274 37.485C124.335 39.1231 122.023 41.466 120.355 44.4687L123.852 46.4113ZM129.209 40.9856C131.538 39.7086 134.147 39.056 137.079 39.056V35.056C133.527 35.056 130.248 35.8541 127.286 37.4784L129.209 40.9856ZM137.079 39.056C141.018 39.056 143.866 40.2776 145.891 42.5476L148.876 39.8844C145.952 36.6077 141.93 35.056 137.079 35.056V39.056ZM149.383 41.216V24.512H145.383V41.216H149.383ZM147.383 26.512H157.367V22.512H147.383V26.512ZM138.807 66.32C141.83 66.32 144.448 65.2725 146.512 63.1562L143.648 60.3638C142.383 61.6609 140.819 62.32 138.807 62.32V66.32ZM146.529 63.1384C148.615 60.9447 149.576 58.0886 149.576 54.784H145.576C145.576 57.2821 144.872 59.0767 143.63 60.3816L146.529 63.1384ZM149.576 54.784C149.576 51.4813 148.616 48.634 146.512 46.4758L143.648 49.2682C144.871 50.5233 145.576 52.2841 145.576 54.784H149.576ZM146.529 46.4936C144.469 44.3287 141.846 43.248 138.807 43.248V47.248C140.803 47.248 142.362 47.9166 143.63 49.2504L146.529 46.4936ZM138.807 43.248C135.737 43.248 133.089 44.3213 131.022 46.4936L133.921 49.2504C135.182 47.924 136.758 47.248 138.807 47.248V43.248ZM131.04 46.4758C128.935 48.634 127.976 51.4813 127.976 54.784H131.975C131.975 52.2841 132.68 50.5233 133.904 49.2682L131.04 46.4758ZM127.976 54.784C127.976 58.0886 128.936 60.9447 131.022 63.1384L133.921 60.3816C132.679 59.0767 131.975 57.2821 131.975 54.784H127.976ZM131.04 63.1562C133.11 65.2796 135.753 66.32 138.807 66.32V62.32C136.742 62.32 135.161 61.6538 133.904 60.3638L131.04 63.1562Z" fill="black" mask="url(#path-4-outside-2_3_49)"/>
<path d="M161.304 75.7194L176.485 60.5385L176.485 66.5217" stroke="#3390FD" stroke-width="2"/>
<path d="M162.15 75.7692L121.535 75.7692L125.766 80" stroke="#FD3333" stroke-width="2"/>
<path d="M161.304 76.6154L161.304 36L165.535 40.2308" stroke="#4FFD33" stroke-width="2"/>
</svg>
